<?xml version="1.0" standalone="yes"?>
<svg xmlns="http://www.w3.org/2000/svg" width="737" height="413">
<path style="fill:#ffffff; stroke:none;" d="M0 0L0 413L137 413L137 412C132.292 411.245 127.058 407.431 131.731 402.408C136.322 397.474 151.463 407.3 154.338 398.856C156.527 392.427 145.773 391.512 142 390.25C132.172 386.962 127.325 375.282 133.009 366.015C140.154 354.368 167.256 353.337 166 370C160.39 369.985 153.537 367.761 148.109 369.434C144.414 370.572 143.538 374.663 146.438 377.272C151.426 381.762 159.738 380.125 164.772 385.225C173.406 393.971 167.278 409.724 156 412L156 413L334 413L334 412C317.463 407.088 315.633 378.525 324.649 366.015C330.363 358.088 343.012 356.298 351.981 358.863C354.972 359.718 359.139 363.997 354.967 366.535C350.445 369.287 342.5 365.292 337.015 367.703C327.759 371.771 327.803 391.313 332.14 398.981C338.375 410.007 351.76 398.831 357.018 405.367C360.498 409.694 353.968 411.532 351 412L351 413L376 413L376 412C350.941 403.976 359.656 356.931 387 358.04C412.14 359.06 415.728 405.249 393 412L393 413L449 413L449 412C439.747 403.452 432.833 385.609 428 374L427 374L427 412L418 412L418 374C418 369.969 416.828 363.536 420.318 360.603C424.606 357 429.844 360.215 432.381 364.044C438.952 373.964 444.431 386.027 449 397L450 397C450 386.154 444.406 359.172 459 359L459 396C459 401.562 460.23 407.858 456 412L456 413L503 413L503 412C493.747 403.452 486.833 385.609 482 374L481 374L481 412L472 412L472 374C472 369.969 470.828 363.536 474.318 360.603C478.606 357 483.844 360.215 486.381 364.044C492.952 373.964 498.431 386.027 503 397L504 397C504 386.154 498.406 359.172 513 359L513 396C513 401.562 514.23 407.858 510 412L510 413L578 413L578 412C561.435 406.696 559.686 377.304 569.558 365.094C575.637 357.575 589.179 356.125 597.938 359.228C601.212 360.389 602.503 364.547 599.006 366.535C594.221 369.256 586.674 365.159 581.043 367.703C571.392 372.063 572.036 392.374 577.005 399.945C583.266 409.484 596.226 399.172 601.199 405.404C604.625 409.696 597.946 411.671 595 412L595 413L661 413L661 412C636.18 403.561 644.745 356.934 672 358.04C697.147 359.06 700.803 405.226 678 412L678 413L737 413L737 412C723.527 409.902 727.843 391.012 712 391L712 412L703 412L703 376C703 371.527 701.77 364.874 705.318 361.434C709.786 357.102 720.469 358.674 726 359.809C730.253 360.681 733.393 362.701 737 365L737 0L556 0L556 1C563.951 1 595.29 0.0116882 584.347 16C583.096 17.8284 581.522 19.4159 579.985 21C547.329 54.6578 512.155 85.8448 479 119C471.153 126.847 462.835 134.161 455 142C452.642 144.359 447.376 148.11 448.346 152C449.382 156.157 455.096 160.096 458 163C465.882 170.882 473.738 178.694 482 186.17C510.921 212.338 537.807 241.081 566 268.039C575.151 276.789 584.274 285.785 592.957 295C596.389 298.642 600.833 303.961 596.562 308.721C593.144 312.533 586.761 312.939 582 312.996C570.322 313.136 558.629 313.996 547 314C519.452 314.009 506.287 296.287 488 278L404 194L374 164C371.197 161.197 366.374 154.207 362 154.207C356.875 154.207 350.338 163.662 347 167L308 206L237 277C226.327 287.673 214.887 303.701 201 310.099C188.495 315.86 175.131 313.336 162 313.015C153.151 312.798 143.725 314.072 135 312.38C127.024 310.834 122.778 305.006 128.344 298C136.379 287.886 146.869 279.131 156 270C185.658 240.342 216.153 211.495 246 182.004C253.547 174.546 261.492 167.524 269 160C271.222 157.773 275.793 154.503 275.793 151C275.793 147.537 271.298 144.254 269 142.17C261.443 135.317 254.217 128.217 247 121C219.173 93.1726 189.828 66.8262 162 39C156 33.0004 135.537 18.5485 137.488 9.01544C139.671 -1.64685 160.269 1 168 1C155.117 -4.40591 132.038 0 118 0L0 0z"/>
<path style="fill:#5c64ab; stroke:none;" d="M168 0.424377C160.349 1.42899 141.533 -1.90491 137.743 7.10803C133.322 17.6227 153.725 31.7254 160 38C188.161 66.1614 217.839 92.839 246 121C253.217 128.217 260.438 135.322 268 142.17C270.269 144.225 274.944 147.579 274.944 151C274.944 154.458 270.195 157.803 268 160C260.488 167.519 252.547 174.547 245 182.004C215.153 211.495 184.658 240.342 155 270C146.045 278.955 134.933 287.678 127.573 298C121.852 306.023 127.804 311.629 136 312.711C144.546 313.838 153.401 312.663 162 313.039C175.303 313.622 189.377 315.914 202 310.099C211.519 305.713 218.722 296.278 226 289L269 246L298 217C301.916 213.084 308.276 208.608 309.682 203C311.498 195.756 310 186.456 310 179L310 128C310 118.983 312.526 105.486 309.397 97C304.327 83.2507 284.928 70.5622 275.09 60C265.313 49.5051 254.79 39.6315 245.17 29C236.751 19.6961 227.779 7.71667 216 2.52856C203.399 -3.02182 181.481 -1.34567 168 0.424377z"/>
<path style="fill:#ffffff; stroke:none;" d="M209 0L209 1C227.56 3.7923 241.593 26.5928 254 39C290.326 75.3257 325.486 112.893 361 150L362 150C398.173 113.827 433.267 76.6158 468.985 40C481.475 27.1971 496.124 3.82944 515 1L487 0L425 0L209 0z"/>
<path style="fill:#2074ba; stroke:none;" d="M448 149C462.279 138.942 474.648 124.333 487 112C509.535 89.5015 532.386 66.5369 556 45.1698C564.58 37.4059 573.012 29.4319 580.957 21C584.067 17.6988 588.122 12.956 586.381 8.01852C583.436 -0.337616 569.901 1.07825 563 0.996155C542.426 0.751404 514.708 -6.24359 498 9.09335C486.013 20.0971 475.482 32.517 464 44C459.192 48.8078 451.006 54.4842 448.603 61C445.851 68.4638 448 80.0832 448 88L448 149z"/>
<path style="fill:#466db3; stroke:none;" d="M447 61C422.362 93.3365 385.385 116.803 362 150L361 150L333.015 120L310 97L310 204C323.304 194.628 334.494 180.506 346 169C349.832 165.168 355.623 156.619 361 155.207C367.086 153.609 379.954 170.954 384 175C404.391 195.391 424.445 221.407 448 238L448 114L448 78L447 61z"/>
<path style="fill:#2074ba; stroke:none;" d="M448 153L448 212C448 219.641 445.946 230.792 448.603 238C451.382 245.536 461.418 252.418 467 258C481.66 272.66 496.147 287.521 511 301.985C528.336 318.867 552.165 313 574 313C580.654 313 593.873 314.915 597.817 307.867C600.657 302.791 596.256 297.501 592.957 294C584.298 284.81 575.239 275.696 566 267.09C535.788 238.946 507.212 209.054 477 180.91C467.315 171.888 458.834 160.631 448 153M166 370C167.95 354.477 143.068 353.728 134.394 363.214C127.748 370.482 129.828 385.608 139.004 389.521C142.967 391.211 153.341 391.52 154.079 397.035C155.468 407.418 132.273 395.992 129.987 405.015C128.375 411.375 135.142 412.553 140 412.91C149.386 413.598 162.861 414.362 167.297 403.999C170.792 395.835 168.751 385.117 159.999 381.714C156.076 380.188 144.383 379.36 145.176 373.093C146.053 366.166 161.502 369.997 166 370z"/>
<path style="fill:#2d393b; stroke:none;" d="M337 358.465C318.28 361.841 313.276 394.594 325.394 407.786C330.24 413.063 337.408 413.031 344 412.999C347.803 412.981 352.302 413.001 355.757 411.146C358.53 409.657 359.157 404.982 355.696 403.774C351.356 402.259 345.721 405.601 341 404.655C329.221 402.296 328.388 386.444 330.684 377C334.58 360.978 346.859 372.133 355.397 366.651C358.415 364.713 356.501 360.233 353.852 359.148C349.072 357.191 341.983 357.566 337 358.465M379 358.468C359.832 362.09 356.278 394.406 367.789 407.671C373.282 413.999 384.335 414.018 392 412.671C405.368 410.322 406.999 397.273 407 386C407.001 367.58 399.732 354.55 379 358.468M581 358.465C562.093 361.898 557.892 394.547 569.709 407.671C574.766 413.287 582.061 413.079 589 412.996C592.462 412.955 596.687 412.902 599.851 411.297C602.616 409.894 603.631 405.942 600.566 404.117C596.651 401.787 589.571 405.572 585 404.655C573.477 402.344 572.395 386.184 574.928 377C576.821 370.138 581.848 366.319 589 366.456C592.139 366.516 597.515 368.612 600.141 366.168C609.072 357.859 584.427 357.842 581 358.465M664 358.468C645.178 362.025 641.489 393.688 652.394 406.956C658.06 413.849 668.784 414.115 677 412.671C690.577 410.285 692 397.38 692 386C692 367.581 684.733 354.549 664 358.468z"/>
<path style="fill:#2074ba; stroke:none;" d="M14 411C26.4997 414.695 32.8806 407.252 37 396L39 396C41.1215 400.917 44.7321 409.322 50.0432 411.397C52.7468 412.453 62.2456 413.359 62.2631 408.852C62.2975 400 49.0201 393.863 49.0201 385C49.0201 376.538 61.5515 370.736 61.2886 362.148C61.1559 357.814 52.7819 358.525 50.0934 359.603C45.0806 361.614 41.7351 369.261 40 374L38 374C35.8941 367.391 31.651 359.336 24 359.019C21.694 358.924 16.8068 358.35 15.9668 361.318C13.7515 369.145 28.0548 376.927 28.4545 384.576C28.8687 392.503 16.3567 402.991 14 411M69 412L80.3966 410.972L82 401L81 375L82 375C82.934 381.324 86.7016 400.647 93.1335 403.242C102.96 407.208 107.066 385.326 108 379L109 379L109 402L110.603 410.972L122 412L122 378C122 373.385 123.253 366.5 121.258 362.228C119.097 357.602 108.759 357.915 105.225 360.603C99.732 364.781 97.4937 377.544 96 384C93.7003 378.812 92.2712 373.317 90.304 368C87.6282 360.767 72.7627 352.635 69.4336 364.044C65.4147 377.817 69 397.633 69 412z"/>
<path style="fill:#2d393b; stroke:none;" d="M196 412C199.405 397.282 205.351 398 219 398C220.319 406.933 222.84 414.002 233 411C231.272 403.532 228.423 396.269 226 389C224.326 383.977 222.683 378.952 220.808 374C219.366 370.193 218.53 365.651 216.442 362.148C213.703 357.552 205.978 358.093 202.995 362.148C197.49 369.631 195.261 382.219 192.333 391C190.814 395.558 185.225 404.948 186.788 409.682C187.852 412.906 193.413 411.998 196 412M239 412L248 412L248 391C253.2 391 258.905 391.648 264 390.471C275.524 387.807 280.794 371.903 271.775 363.279C267.06 358.769 259.069 359.002 253 359C249.142 358.999 243.558 358.123 240.742 361.434C237.766 364.933 239 371.748 239 376L239 412M285 359L285 412L294 412L294 359L285 359M418 412L427 412L427 374L428 374C431.251 385.286 438.731 399.256 445.468 408.891C448 412.513 454.813 415.156 457.972 410.566C460.345 407.119 459 399.996 459 396L459 359C444.226 359.052 450 385.72 450 397C444.15 386.977 439.865 376.096 434.138 366.004C431.452 361.27 427.129 357.004 421.148 359.603C416.585 361.587 418 369.017 418 373L418 412M472 412L481 412L481 374L482 374C485.251 385.286 492.731 399.255 499.468 408.891C502 412.513 508.813 415.156 511.972 410.566C514.345 407.119 513 399.996 513 396L513 359C498.226 359.052 504 385.72 504 397C498.15 386.977 493.865 376.096 488.138 366.004C485.452 361.27 481.129 357.004 475.148 359.603C470.585 361.587 472 369.017 472 373L472 412M559 412L559 404C553.809 404 539.254 406.517 536.028 401.682C533.915 398.516 535 392.641 535 389L556 389C555.956 376.608 544.633 380 535 380C535 376.317 533.988 370.42 538.148 368.603C542.808 366.569 557.207 371.402 557.793 363.961C558.388 356.404 532.622 357.192 528.318 360.742C525.177 363.333 526 368.394 526 372L526 400C526.001 403.376 525.203 408.597 528.434 410.821C534.728 415.153 551.483 412 559 412M604 359C604.037 369.505 610.199 368 619 368L619 412L629 412L629 368C637.801 368 643.963 369.505 644 359L604 359M703 412L712 412L712 391C727.357 391.054 723.516 410.974 737 412C737 402.658 735.189 396.867 730 389C738.304 386.107 740.796 368.281 733.852 362.514C728.644 358.189 706.782 355.452 703.603 363.109C701.877 367.268 703 373.568 703 378L703 412z"/>
<path style="fill:#ffffff; stroke:none;" d="M383 366.508C366.139 369.014 367.226 407.806 387 404.785C402.763 402.377 402.016 363.681 383 366.508M668 366.508C651.132 369.015 652.413 407.423 672 404.81C687.711 402.715 687.089 363.67 668 366.508M248 383C251.297 383 254.721 383.258 258 382.891C277.203 380.74 256.635 357.919 249.028 369.318C246.788 372.675 248 379.131 248 383M712 383C715.256 383 718.784 383.365 721.996 382.772C738.751 379.675 720.834 359.1 713.028 368.742C710.568 371.781 712 379.288 712 383M209 369L203 389L216 389L209 369M736 384L730 389L736 400L737 400L736 384z"/>
</svg>
